<?xml version="1.0" standalone="no"?>
<!DOCTYPE svg PUBLIC "-//W3C//DTD SVG 20010904//EN"
 "http://www.w3.org/TR/2001/REC-SVG-20010904/DTD/svg10.dtd">
<svg version="1.0" xmlns="http://www.w3.org/2000/svg"
 width="512.000000pt" height="512.000000pt" viewBox="0 0 512.000000 512.000000"
 preserveAspectRatio="xMidYMid meet">
<metadata>
Created by potrace 1.11, written by Peter Selinger 2001-2013
</metadata>
<g transform="translate(0.000000,512.000000) scale(0.100000,-0.100000)"
fill="#000000" stroke="none">
<path d="M1930 4589 c-85 -15 -158 -25 -162 -23 -4 2 -9 0 -13 -6 -4 -6 -10
-8 -13 -6 -4 2 -30 0 -57 -5 -28 -5 -66 -12 -85 -15 -19 -3 -75 -12 -125 -20
-49 -8 -103 -17 -120 -20 -16 -2 -43 -7 -58 -10 -16 -3 -38 -7 -50 -9 -26 -3
-104 -15 -132 -20 -52 -9 -115 -17 -121 -15 -16 5 -21 -30 -24 -163 -1 -78 -3
-171 -4 -207 l-1 -64 -44 -8 c-25 -4 -63 -10 -85 -13 -23 -3 -49 -8 -58 -11
-9 -3 -32 -7 -50 -9 -18 -2 -51 -7 -73 -11 -22 -3 -46 -7 -52 -7 -7 0 -13 -3
-13 -6 0 -2 80 -167 179 -365 l179 -361 -3 -130 c-21 -864 -25 -1068 -25
-1200 1 -66 2 -133 4 -150 2 -16 6 -61 10 -98 10 -99 59 -283 102 -384 78
-181 178 -318 324 -443 36 -30 67 -57 70 -60 17 -19 159 -105 235 -143 119
-58 288 -120 370 -133 11 -2 38 -8 60 -13 35 -9 88 -18 150 -27 11 -1 36 -3
56 -3 l36 -1 82 -165 c44 -91 83 -165 85 -165 3 0 44 72 93 160 70 126 92 159
108 158 21 -1 156 12 190 18 10 2 35 6 55 9 211 31 475 135 645 253 174 121
306 264 399 433 31 57 102 229 111 269 2 8 13 57 25 109 11 51 23 119 26 150
3 31 7 70 9 86 4 30 12 301 20 690 2 110 7 315 10 455 l6 255 83 150 c46 82
96 173 111 200 16 28 66 117 112 199 45 82 83 153 83 157 0 5 -8 9 -18 9 -10
0 -81 14 -158 30 -76 17 -151 33 -166 36 l-28 6 4 213 c5 238 11 216 -69 231
-22 4 -47 8 -55 10 -16 3 -82 17 -90 19 -3 0 -23 5 -45 10 -22 4 -44 9 -50 11
-5 1 -23 5 -40 8 -16 3 -75 15 -130 27 -55 11 -109 23 -120 25 -11 2 -30 6
-41 8 -12 2 -64 14 -115 25 -52 11 -107 22 -124 25 -16 3 -39 8 -50 10 -11 3
-54 12 -95 21 -127 28 -120 28 -121 3 -2 -53 -7 -278 -8 -340 l-1 -66 -62 15
c-35 8 -72 16 -83 18 -11 2 -45 8 -75 14 -30 6 -66 14 -80 16 -14 3 -49 11
-79 19 -65 17 -145 14 -261 -10 -29 -6 -59 -10 -120 -18 -25 -4 -76 -12 -113
-20 -45 -8 -70 -10 -74 -3 -3 6 -5 42 -4 81 2 39 4 131 6 203 3 130 2 133 -19
130 -11 -1 -91 -14 -176 -28z"/>
</g>
</svg>
